<svg xmlns="http://www.w3.org/2000/svg" viewBox="15 12 222 45" class="checkout-header__brand-svg">
  <title>Andrea Mx</title>
  <path d="M220.97 34.67a5.08 5.08 0 0 1 5.08-5.08c2.8 0 5.08 2.28 5.08 5.08 0 2.8-2.28 5.08-5.08 5.08-2.8.01-5.08-2.28-5.08-5.08m.2-15.72c.14-.31.33-.57.57-.81.23-.22.49-.39.8-.52.31-.13.63-.19.97-.19.35 0 .68.05.99.19.3.13.57.31.8.52.23.24.41.5.54.81.14.29.21.63.21.99 0 .37-.07.7-.21 1.01-.13.32-.31.58-.54.82a2.566 2.566 0 0 1-1.79.71c-.34 0-.66-.06-.97-.19-.31-.12-.58-.3-.8-.52-.24-.23-.42-.5-.57-.82-.12-.31-.19-.64-.19-1.01-.01-.36.07-.7.19-.99m.41 1.85c.11.26.26.49.44.68.19.2.41.35.66.46.26.11.54.17.82.17.31 0 .59-.06.83-.17a2.098 2.098 0 0 0 1.1-1.14c.1-.26.16-.55.16-.86 0-.3-.06-.58-.16-.85-.1-.26-.26-.48-.44-.67-.19-.19-.41-.34-.66-.46-.24-.11-.52-.17-.83-.17-.29 0-.57.06-.82.17-.25.12-.47.27-.66.46-.18.19-.33.41-.44.67-.1.27-.16.55-.16.85.01.3.06.59.16.86m2.1-2.33c.36 0 .61.07.78.21.17.13.25.34.25.63 0 .27-.07.46-.21.58-.15.13-.35.2-.56.22l.84 1.3h-.49l-.81-1.26H223v1.26h-.46v-2.94h1.14zm-.21 1.31c.1 0 .2 0 .28-.01.1-.01.18-.02.26-.06a.42.42 0 0 0 .18-.14c.04-.07.06-.16.06-.28a.45.45 0 0 0-.06-.24.384.384 0 0 0-.15-.13.742.742 0 0 0-.21-.07c-.08-.02-.16-.02-.24-.02h-.6v.94h.48zm-5.09 26.61c-.86 0-.82 1.4-2 1.4-.64 0-1.16-.33-1.16-1.61V26.54c0-6.02-3.74-9.11-12.6-9.11-6.96 0-12.44 3.26-12.44 8.23 0 2.99 2.31 5.03 4.98 5.03 2.53 0 4.78-1.96 4.78-4.24 0-.43-.26-.97-.84-1.3-1-.57-1.42-1.42-1.42-2.2 0-1.96 1.83-2.93 4.26-2.93 2.45 0 3.85 1.44 3.85 3.95v7.28c-2.85 1-7.36 2.89-10.14 4.58-3.85 2.33-6.11 5.47-6.11 9.35 0 3.83 3.05 7.29 7.42 7.29 3.52 0 6.73-2.1 9.05-5.34.47 3.4 3.41 5.34 6.22 5.34 4.59 0 6.97-3.06 6.97-5.24-.01-.45-.36-.84-.82-.84m-12.59-2.63c-.97 1.48-2.4 2.54-3.98 2.54-1.66 0-3.21-1.61-3.21-4.05 0-3.44 2.81-6.28 7.19-8.11v9.62zm-18.88-2.58c-.41 0-.74.14-1.12.72-2.09 3.24-4.36 5.34-8.14 5.34-4.62 0-7.86-4.71-8.28-12.42h19.3c0-10.91-5.3-17.3-14.57-17.3-8.12 0-14.45 6.14-14.45 17.71 0 9.81 5.79 17.24 14.38 17.24 7.98 0 12.38-5.87 13.55-10.21a.808.808 0 0 0-.67-1.08m-12.71-20.9c3.25 0 4.92 4.65 4.92 11.5h-9.79c0-6.85 1.56-11.5 4.87-11.5"/>
  <path d="M160.5 50.22c-1.09-.13-2.05-.54-3.02-4.14-.71-2.64-.84-3.26-1.43-5.32-.83-2.85-2.74-4.65-6.71-4.79v-.1c4.2-.41 8.12-4.26 8.12-8.54 0-5.42-4.57-9.33-11.23-9.33l-15.39.01h-1.64c-.63 0-1.05.36-1.05.9 0 .38.27.73.95.92 1.2.33 2.04 1.01 2.04 2.3v25.73c0 1.29-.84 1.96-2.04 2.3-.68.19-.95.53-.95.92 0 .55.42.89 1.05.89h13.21c.62 0 1.05-.35 1.05-.89 0-.38-.28-.73-.96-.92-1.18-.33-1.98-.99-2.02-2.21V37.51h1.66c3.02 0 3.8 1.08 4.3 3.37.45 2.03 1.21 5.87 1.67 7.86.45 1.95 1.41 3.23 3.14 3.23h9.12c.78 0 1.17-.34 1.17-.9.02-.5-.49-.79-1.04-.85m-18.27-15.55h-1.74V20.72h1.91c3.6 0 5.52 3.05 5.52 6.85 0 4.09-1.74 7.1-5.69 7.1m-29.4-16.65H97.25c-.62 0-1.05.36-1.05.9 0 .38.27.73.95.92 1.21.33 2.05 1.01 2.05 2.3v25.73c0 1.29-.84 1.96-2.05 2.3-.67.19-.95.53-.95.92 0 .55.42.89 1.05.89h15.89c7.72 0 14.71-5.35 14.71-17.16-.01-10.62-7-16.8-15.02-16.8m5 17.76c0 7.3-1.81 13.67-6.94 13.67h-2.25V20.73l2.08-.01c4.81 0 7.11 4.97 7.11 11.96v3.1zM74.61 18.02H63.22c-.63 0-1.05.36-1.05.9 0 .38.27.73.95.92 1.21.33 2.04 1.01 2.04 2.3v25.73c0 1.29-.83 1.96-2.04 2.3-.68.19-.95.53-.95.92 0 .55.42.89 1.05.89h13.34c.62 0 1.05-.35 1.05-.89 0-.38-.27-.73-.94-.92-1.21-.33-2.05-1.01-2.05-2.3v-21.5c1.33-1.91 3.53-3.18 5.2-3.18 1.63 0 2.94.95 2.94 3.35v21.33c0 1.29-.85 1.96-2.05 2.3-.68.19-.95.53-.95.92 0 .55.41.89 1.05.89h13.34c.63 0 1.04-.35 1.04-.89 0-.38-.27-.73-.94-.92-1.2-.33-2.05-1.01-2.05-2.3V26.09c0-5.06-2.86-8.58-7.99-8.58-3.51 0-6.72 1.79-9.6 5.09v-4.58zM60.15 50.16c-1.21-.33-2.04-1.01-2.04-2.3V26.54c0-6.02-3.75-9.11-12.6-9.11-6.96 0-12.45 3.26-12.45 8.23 0 2.99 2.31 5.03 4.98 5.03 2.53 0 4.78-1.96 4.78-4.24 0-.43-.26-.97-.84-1.3-.99-.57-1.42-1.42-1.42-2.2 0-1.96 1.84-2.93 4.26-2.93 2.44 0 3.84 1.44 3.84 3.95v7.28c-2.84 1-7.34 2.89-10.14 4.58-3.83 2.33-6.1 5.47-6.1 9.35 0 3.83 3.04 7.29 7.41 7.29 3.53 0 6.56-2.11 8.88-5.36 0 2.75 1.73 4.86 4.58 4.86h6.76c.63 0 1.05-.35 1.05-.89 0-.38-.27-.73-.95-.92m-11.5-6.4c-.96 1.48-2.4 2.54-3.97 2.54-1.66 0-3.21-1.61-3.21-4.05 0-3.44 2.8-6.28 7.18-8.11v9.62zm-29.52-9.09c0-2.81 2.27-5.08 5.07-5.08a5.08 5.08 0 0 1 0 10.16c-2.8.01-5.07-2.28-5.07-5.08"/>
</svg>
